<svg width="88" height="26" viewBox="0 0 88 26" fill="none" xmlns="http://www.w3.org/2000/svg">
<path d="M4.43999 16.8655H9.35569V20.5499H0V0H9.35569V3.62084H4.43999V8.44864H9.03855V11.9424H4.43999V16.8655Z" fill="#018FDE"/>
<path d="M17.2201 15.468L14.8732 20.5499H10.4649L14.7781 12.2918L10.7504 5.05012H15.3806L17.2201 9.68735L19.0595 5.05012H23.6898L19.6621 12.2918L23.9752 20.5499H19.5669L17.2201 15.468Z" fill="#018FDE"/>
<path d="M33.1255 20.8675H32.4595C31.3812 20.8675 30.5144 20.6134 29.8589 20.1052V25.6H25.6092V5.05012H29.1929V6.19355C29.8484 5.21952 30.9372 4.73251 32.4595 4.73251H33.1255C35.7472 4.73251 37.0581 6.13003 37.0581 8.92506V16.6749C37.0581 19.47 35.7472 20.8675 33.1255 20.8675ZM29.8589 8.41687V17.1831C29.8589 17.3525 29.9118 17.5007 30.0175 17.6278C30.1444 17.7548 30.2924 17.8184 30.4615 17.8184H32.2058C32.3749 17.8184 32.5124 17.7548 32.6181 17.6278C32.7449 17.5007 32.8083 17.3525 32.8083 17.1831V8.41687C32.8083 8.24748 32.7449 8.09926 32.6181 7.97221C32.5124 7.84516 32.3749 7.78164 32.2058 7.78164H30.4615C30.2924 7.78164 30.1444 7.84516 30.0175 7.97221C29.9118 8.09926 29.8589 8.24748 29.8589 8.41687Z" fill="#018FDE"/>
<path d="M46.5453 4.73251H47.3699V8.86154H45.2767C44.5579 8.86154 44.1985 9.23209 44.1985 9.9732V20.5499H39.9488V5.05012H43.8179V6.54293C44.431 5.33598 45.3402 4.73251 46.5453 4.73251Z" fill="#018FDE"/>
<path d="M56.7873 4.73251C59.409 4.73251 60.7198 6.13003 60.7198 8.92506V13.9434H53.5207V17.1831C53.5207 17.3525 53.5736 17.5007 53.6793 17.6278C53.8061 17.7548 53.9541 17.8184 54.1233 17.8184H55.8676C56.0367 17.8184 56.1741 17.7548 56.2798 17.6278C56.4067 17.5007 56.4701 17.3525 56.4701 17.1831V15.468H60.7198V16.6749C60.7198 19.47 59.409 20.8675 56.7873 20.8675H53.2036C50.5819 20.8675 49.271 19.47 49.271 16.6749V8.92506C49.271 6.13003 50.5819 4.73251 53.2036 4.73251H56.7873ZM53.5207 11.1484H56.4701V8.28983C56.4701 8.12043 56.4067 7.97221 56.2798 7.84516C56.1741 7.71812 56.0367 7.65459 55.8676 7.65459H54.1233C53.9541 7.65459 53.8061 7.71812 53.6793 7.84516C53.5736 7.97221 53.5207 8.12043 53.5207 8.28983V11.1484Z" fill="#018FDE"/>
<path d="M70.3473 10.8308C72.969 10.8308 74.2799 12.2283 74.2799 15.0233V16.6749C74.2799 19.47 72.969 20.8675 70.3473 20.8675H66.827C64.2053 20.8675 62.8945 19.47 62.8945 16.6749V15.6903H66.827V17.0878C66.827 17.2572 66.8799 17.4055 66.9856 17.5325C67.1125 17.6596 67.2605 17.7231 67.4296 17.7231H70.0302C70.1993 17.7231 70.3367 17.6596 70.4425 17.5325C70.5693 17.4055 70.6328 17.2572 70.6328 17.0878V15.1821C70.6328 15.0127 70.5693 14.8645 70.4425 14.7375C70.3367 14.6104 70.1993 14.5469 70.0302 14.5469H66.7636C64.1419 14.5469 62.831 13.1494 62.831 10.3543V8.92506C62.831 6.13003 64.1419 4.73251 66.7636 4.73251H70.0936C72.7153 4.73251 74.0262 6.13003 74.0262 8.92506V9.49678H70.0936V8.51216C70.0936 8.34276 70.0302 8.19454 69.9033 8.0675C69.7976 7.94045 69.6602 7.87692 69.491 7.87692H67.0808C66.9116 7.87692 66.7636 7.94045 66.6368 8.0675C66.5311 8.19454 66.4782 8.34276 66.4782 8.51216V10.1955C66.4782 10.3649 66.5311 10.5132 66.6368 10.6402C66.7636 10.7672 66.9116 10.8308 67.0808 10.8308H70.3473Z" fill="#018FDE"/>
<path d="M84.0674 10.8308C86.6891 10.8308 88 12.2283 88 15.0233V16.6749C88 19.47 86.6891 20.8675 84.0674 20.8675H80.5472C77.9255 20.8675 76.6146 19.47 76.6146 16.6749V15.6903H80.5472V17.0878C80.5472 17.2572 80.6 17.4055 80.7057 17.5325C80.8326 17.6596 80.9806 17.7231 81.1497 17.7231H83.7503C83.9194 17.7231 84.0569 17.6596 84.1626 17.5325C84.2894 17.4055 84.3529 17.2572 84.3529 17.0878V15.1821C84.3529 15.0127 84.2894 14.8645 84.1626 14.7375C84.0569 14.6104 83.9194 14.5469 83.7503 14.5469H80.4837C77.862 14.5469 76.5512 13.1494 76.5512 10.3543V8.92506C76.5512 6.13003 77.862 4.73251 80.4837 4.73251H83.8137C86.4354 4.73251 87.7463 6.13003 87.7463 8.92506V9.49678H83.8137V8.51216C83.8137 8.34276 83.7503 8.19454 83.6234 8.0675C83.5177 7.94045 83.3803 7.87692 83.2112 7.87692H80.8009C80.6317 7.87692 80.4837 7.94045 80.3569 8.0675C80.2512 8.19454 80.1983 8.34276 80.1983 8.51216V10.1955C80.1983 10.3649 80.2512 10.5132 80.3569 10.6402C80.4837 10.7672 80.6317 10.8308 80.8009 10.8308H84.0674Z" fill="#018FDE"/>
</svg>
